<svg xmlns="http://www.w3.org/2000/svg" xmlns:xlink="http://www.w3.org/1999/xlink" width="500" zoomAndPan="magnify" viewBox="0 0 375 374.999991" height="500" preserveAspectRatio="xMidYMid meet" version="1.0"><defs><g/><clipPath id="b90b3cf833"><path d="M 106.546875 64.210938 L 268.453125 64.210938 L 268.453125 231.804688 L 106.546875 231.804688 Z M 106.546875 64.210938 " clip-rule="nonzero"/></clipPath><clipPath id="27d114085a"><path d="M 187.5 64.210938 C 142.792969 64.210938 106.546875 101.714844 106.546875 147.984375 C 106.546875 194.25 142.792969 231.757812 187.5 231.757812 C 232.207031 231.757812 268.453125 194.25 268.453125 147.984375 C 268.453125 101.714844 232.207031 64.210938 187.5 64.210938 Z M 187.5 64.210938 " clip-rule="nonzero"/></clipPath><clipPath id="880e5a6dba"><path d="M 179 74.523438 L 262 74.523438 L 262 221.523438 L 179 221.523438 Z M 179 74.523438 " clip-rule="nonzero"/></clipPath><clipPath id="a6205a542c"><path d="M 113 83 L 176 83 L 176 195 L 113 195 Z M 113 83 " clip-rule="nonzero"/></clipPath><clipPath id="89ec3d159f"><path d="M 127.714844 83.46875 C 126.308594 90.539062 129.839844 97.824219 134.925781 102.914062 C 140.011719 108.003906 146.519531 111.390625 152.734375 115.027344 C 158.949219 118.664062 165.148438 122.800781 169.0625 128.855469 C 172.460938 134.121094 173.839844 140.425781 174.558594 146.660156 C 175.421875 154.199219 175.304688 162.132812 172.902344 169.242188 C 171.15625 164.960938 168.886719 160.855469 166.292969 157.027344 C 161.207031 149.488281 154.949219 142.832031 148.71875 136.21875 C 141.433594 128.488281 134.164062 120.761719 126.878906 113.035156 C 134.414062 127.171875 146.09375 138.550781 155.972656 151.175781 C 165.851562 163.789062 174.265625 178.847656 173.339844 194.847656 C 172.609375 186.664062 165.96875 180.167969 158.773438 176.210938 C 151.578125 172.25 143.5 170.050781 136.390625 165.914062 C 122.96875 158.054688 113.9375 143.15625 113.234375 127.625 C 112.53125 111.917969 119.699219 96.988281 127.714844 83.46875 Z M 127.714844 83.46875 " clip-rule="nonzero"/></clipPath><linearGradient x1="-1204.20996" gradientTransform="matrix(-0.146566, 0, 0, 0.146648, -32.378329, 74.523468)" y1="60.999932" x2="-1204.20996" gradientUnits="userSpaceOnUse" y2="820.499992" id="df829e9372"><stop stop-opacity="1" stop-color="rgb(53.503418%, 74.87793%, 25.770569%)" offset="0"/><stop stop-opacity="1" stop-color="rgb(53.413391%, 74.772644%, 25.761414%)" offset="0.125"/><stop stop-opacity="1" stop-color="rgb(53.234863%, 74.565125%, 25.744629%)" offset="0.25"/><stop stop-opacity="1" stop-color="rgb(53.05481%, 74.356079%, 25.727844%)" offset="0.375"/><stop stop-opacity="1" stop-color="rgb(52.876282%, 74.147034%, 25.71106%)" offset="0.5"/><stop stop-opacity="1" stop-color="rgb(52.696228%, 73.939514%, 25.694275%)" offset="0.625"/><stop stop-opacity="1" stop-color="rgb(52.5177%, 73.730469%, 25.67749%)" offset="0.75"/><stop stop-opacity="1" stop-color="rgb(52.337646%, 73.522949%, 25.660706%)" offset="0.875"/><stop stop-opacity="1" stop-color="rgb(52.157593%, 73.313904%, 25.645447%)" offset="1"/></linearGradient></defs><rect x="-37.5" width="450" fill="#ffffff" y="-37.499999" height="449.999989" fill-opacity="1"/><rect x="-37.5" width="450" fill="#ffffff" y="-37.499999" height="449.999989" fill-opacity="1"/><g clip-path="url(#b90b3cf833)"><g clip-path="url(#27d114085a)"><path fill="#ffbd59" d="M 106.546875 64.210938 L 268.453125 64.210938 L 268.453125 231.804688 L 106.546875 231.804688 Z M 106.546875 64.210938 " fill-opacity="1" fill-rule="nonzero"/></g></g><g clip-path="url(#880e5a6dba)"><path fill="#006838" d="M 242.417969 74.523438 C 244.28125 83.851562 239.617188 93.46875 232.90625 100.1875 C 226.195312 106.917969 217.605469 111.375 209.410156 116.171875 C 201.203125 120.96875 193.011719 126.4375 187.867188 134.429688 C 183.382812 141.378906 181.550781 149.710938 180.613281 157.921875 C 179.4375 167.894531 179.601562 178.351562 182.765625 187.734375 C 185.066406 182.074219 188.070312 176.664062 191.488281 171.605469 C 198.199219 161.648438 206.464844 152.863281 214.6875 144.121094 C 224.304688 133.914062 233.902344 123.722656 243.519531 113.515625 C 233.566406 132.171875 218.148438 147.21875 205.117188 163.863281 C 192.085938 180.519531 180.976562 200.40625 182.195312 221.523438 C 183.160156 210.714844 191.925781 202.136719 201.4375 196.914062 C 210.949219 191.695312 221.605469 188.777344 230.972656 183.320312 C 248.691406 172.996094 260.605469 153.316406 261.53125 132.816406 C 262.46875 112.078125 253.015625 92.355469 242.417969 74.523438 Z M 242.417969 74.523438 " fill-opacity="1" fill-rule="nonzero"/></g><g clip-path="url(#a6205a542c)"><g clip-path="url(#89ec3d159f)"><path fill="url(#df829e9372)" d="M 175.421875 83.46875 L 175.421875 194.847656 L 112.53125 194.847656 L 112.53125 83.46875 Z M 175.421875 83.46875 " fill-rule="nonzero"/></g></g><g fill="#000000" fill-opacity="1"><g transform="translate(127.186255, 266.329816)"><g><path d="M 5.25 0 L 1.984375 0 L 1.984375 -15.703125 L 10.984375 -15.703125 L 10.984375 -12.984375 L 5.25 -12.984375 L 5.25 -8.921875 L 10.578125 -8.921875 L 10.578125 -6.203125 L 5.25 -6.203125 Z M 5.25 0 "/></g></g></g><g fill="#000000" fill-opacity="1"><g transform="translate(143.812324, 266.329816)"><g><path d="M 11.59375 0 L 10.453125 -3.734375 L 4.734375 -3.734375 L 3.59375 0 L 0 0 L 5.546875 -15.765625 L 9.609375 -15.765625 L 15.171875 0 Z M 9.65625 -6.53125 C 8.601562 -9.914062 8.007812 -11.828125 7.875 -12.265625 C 7.75 -12.710938 7.65625 -13.066406 7.59375 -13.328125 C 7.351562 -12.410156 6.675781 -10.144531 5.5625 -6.53125 Z M 9.65625 -6.53125 "/></g></g></g><g fill="#000000" fill-opacity="1"><g transform="translate(163.542339, 266.329816)"><g><path d="M 5.3125 -8.734375 L 6.375 -8.734375 C 7.425781 -8.734375 8.203125 -8.90625 8.703125 -9.25 C 9.210938 -9.601562 9.46875 -10.160156 9.46875 -10.921875 C 9.46875 -11.660156 9.207031 -12.1875 8.6875 -12.5 C 8.175781 -12.820312 7.382812 -12.984375 6.3125 -12.984375 L 5.3125 -12.984375 Z M 5.3125 -6.03125 L 5.3125 0 L 1.984375 0 L 1.984375 -15.703125 L 6.546875 -15.703125 C 8.679688 -15.703125 10.257812 -15.3125 11.28125 -14.53125 C 12.3125 -13.757812 12.828125 -12.582031 12.828125 -11 C 12.828125 -10.070312 12.570312 -9.25 12.0625 -8.53125 C 11.550781 -7.8125 10.832031 -7.25 9.90625 -6.84375 C 12.269531 -3.3125 13.8125 -1.03125 14.53125 0 L 10.828125 0 L 7.078125 -6.03125 Z M 5.3125 -6.03125 "/></g></g></g><g fill="#000000" fill-opacity="1"><g transform="translate(182.617193, 266.329816)"><g><path d="M 8.625 0 L 4.84375 -12.328125 L 4.75 -12.328125 C 4.882812 -9.816406 4.953125 -8.144531 4.953125 -7.3125 L 4.953125 0 L 1.984375 0 L 1.984375 -15.703125 L 6.515625 -15.703125 L 10.234375 -3.703125 L 10.296875 -3.703125 L 14.234375 -15.703125 L 18.765625 -15.703125 L 18.765625 0 L 15.65625 0 L 15.65625 -7.4375 C 15.65625 -7.78125 15.660156 -8.179688 15.671875 -8.640625 C 15.679688 -9.097656 15.734375 -10.316406 15.828125 -12.296875 L 15.734375 -12.296875 L 11.671875 0 Z M 8.625 0 "/></g></g></g><g fill="#000000" fill-opacity="1"><g transform="translate(207.910671, 266.329816)"><g/></g></g><g fill="#000000" fill-opacity="1"><g transform="translate(218.178492, 266.329816)"><g><path d="M 11.015625 0 L 1.984375 0 L 1.984375 -15.703125 L 11.015625 -15.703125 L 11.015625 -12.984375 L 5.3125 -12.984375 L 5.3125 -9.53125 L 10.625 -9.53125 L 10.625 -6.796875 L 5.3125 -6.796875 L 5.3125 -2.75 L 11.015625 -2.75 Z M 11.015625 0 "/></g></g></g><g fill="#000000" fill-opacity="1"><g transform="translate(235.051598, 266.329816)"><g><path d="M 12.21875 0 L 0.53125 0 L 0.53125 -2.15625 L 8.0625 -12.953125 L 0.734375 -12.953125 L 0.734375 -15.703125 L 12.015625 -15.703125 L 12.015625 -13.5625 L 4.484375 -2.75 L 12.21875 -2.75 Z M 12.21875 0 "/></g></g></g></svg>